Coordinates
version=1
nRows=10
nColumns=38
inDegrees=no

Units are S.I. units (second, meters, Newtons, ...)
If the header above contains a line with 'inDegrees', this indicates whether rotational values are in degrees (yes) or radians (no).

endheader
time	pelvis_tilt	pelvis_list	pelvis_rotation	pelvis_tx	pelvis_ty	pelvis_tz	hip_flexion_r	hip_adduction_r	hip_rotation_r	knee_angle_r	ankle_angle_r	subtalar_angle_r	mtp_angle_r	hip_flexion_l	hip_adduction_l	hip_rotation_l	knee_angle_l	ankle_angle_l	subtalar_angle_l	mtp_angle_l	lumbar_extension	lumbar_bending	lumbar_rotation	arm_flex_r	arm_add_r	arm_rot_r	elbow_flex_r	pro_sup_r	wrist_flex_r	wrist_dev_r	arm_flex_l	arm_add_l	arm_rot_l	elbow_flex_l	pro_sup_l	wrist_flex_l	wrist_dev_l
1.36667	-0.0127166	0.106781	0.0248377	0.871283	0.961065	-0.276978	0.506924	-0.118264	0.0826177	-1.47438	0.0693764	-0.0371035	0.00141215	0.173758	0.278438	0.191144	-0.705321	0.364431	-0.0750876	-0.00272192	-0.22745	-0.0949041	-0.225967	-0.572232	-0.268426	0.0247112	1.33133	1.83761	-0.0038772	-0.00480395	-0.352081	-0.187033	-0.0456409	2.00004	1.99615	0.0120258	-0.00886156
1.375	-0.0219817	0.0932415	0.0245575	0.872648	0.965722	-0.276413	0.524316	-0.0999994	0.0802802	-1.43306	0.0800525	-0.0371035	0.00141215	0.144007	0.261343	0.20239	-0.668717	0.345682	-0.0750876	-0.00272192	-0.211121	-0.0787368	-0.232273	-0.603927	-0.277731	0.0192273	1.34815	1.83624	-0.0038772	-0.00480395	-0.345769	-0.185358	-0.0436269	2.01915	1.99555	0.0120258	-0.00886156
1.38333	-0.03076	0.0790621	0.0236633	0.874198	0.970831	-0.275734	0.538286	-0.0808487	0.0774183	-1.38642	0.0899775	-0.0371035	0.00141215	0.114062	0.24294	0.211252	-0.631047	0.320928	-0.0750876	-0.00272192	-0.195101	-0.0619869	-0.236716	-0.636495	-0.285756	0.0118954	1.36767	1.8335	-0.0038772	-0.00480395	-0.340814	-0.184861	-0.0395105	2.03783	1.993	0.0120258	-0.00886156
1.39167	-0.0387707	0.0644279	0.0220659	0.875891	0.976317	-0.274949	0.548652	-0.061075	0.0743109	-1.33472	0.0990179	-0.0371035	0.00141215	0.0842554	0.223512	0.217196	-0.593284	0.290117	-0.0750876	-0.00272192	-0.179893	-0.0448322	-0.239275	-0.669475	-0.292187	0.00259528	1.38881	1.82986	-0.0038772	-0.00480395	-0.336879	-0.185545	-0.0333364	2.05569	1.98921	0.0120258	-0.00886156
1.4	-0.0459277	0.0495991	0.0197478	0.877692	0.982085	-0.274066	0.555457	-0.0410454	0.071213	-1.27821	0.107105	-0.0371035	0.00141215	0.0550096	0.203424	0.21991	-0.556258	0.253388	-0.0750876	-0.00272192	-0.165732	-0.0275603	-0.240129	-0.702313	-0.29691	-0.00847345	1.41062	1.82589	-0.0038772	-0.00480395	-0.333794	-0.187333	-0.0254091	2.07248	1.98488	0.0120258	-0.00886156
1.40833	-0.0523178	0.0349426	0.0167814	0.879575	0.988028	-0.273092	0.558934	-0.0212395	0.068372	-1.21718	0.114252	-0.0371035	0.00141215	0.0267764	0.183136	0.219376	-0.52061	0.211116	-0.0750876	-0.00272192	-0.15258	-0.0106061	-0.239699	-0.734375	-0.300018	-0.0207905	1.43227	1.82212	-0.0038772	-0.00480395	-0.331577	-0.190091	-0.0162733	2.08808	1.9807	0.0120258	-0.00886156
1.41667	-0.0581455	0.0209254	0.0133277	0.881523	0.994029	-0.272032	0.559443	-0.00222522	0.0660545	-1.15197	0.120563	-0.0371035	0.00141215	-2.06666e-05	0.163203	0.21589	-0.486807	0.163947	-0.0750876	-0.00272192	-0.140212	0.00546363	-0.238588	-0.765001	-0.301766	-0.0336182	1.45309	1.81894	-0.0038772	-0.00480395	-0.330394	-0.193651	-0.00661267	2.10247	1.97728	0.0120258	-0.00886156
1.425	-0.0636252	0.0080563	0.00959907	0.88352	0.999974	-0.270897	0.557393	0.0154031	0.0645731	-1.08311	0.126222	-0.0371035	0.00141215	-0.0250463	0.144246	0.210021	-0.455237	0.112843	-0.0750876	-0.00272192	-0.128367	0.0200478	-0.237384	-0.793668	-0.302454	-0.0462647	1.47267	1.81654	-0.0038772	-0.00480395	-0.330402	-0.197841	0.00297013	2.11567	1.97501	0.0120258	-0.00886156
1.43333	-0.0689697	-0.00313558	0.00584304	0.885553	1.00575	-0.269698	0.553243	0.0310679	0.0642823	-1.01128	0.131438	-0.0371035	0.00141215	-0.0480326	0.126912	0.202537	-0.426218	0.0589863	-0.0750876	-0.00272192	-0.116766	0.0325141	-0.236692	-0.8199	-0.302435	-0.0580256	1.49074	1.81485	-0.0038772	-0.00480395	-0.33178	-0.202489	0.0119115	2.12774	1.97407	0.0120258	-0.00886156
1.44167	-0.0743211	-0.0121675	0.0022812	0.887598	1.01126	-0.268454	0.547472	0.0442745	0.065565	-0.937406	0.136433	-0.0371035	0.00141215	-0.0687948	0.111822	0.194287	-0.40009	0.00373978	-0.0750876	-0.00272192	-0.105231	0.0423268	-0.236934	-0.843403	-0.302005	-0.068404	1.50725	1.81362	-0.0038772	-0.00480395	-0.334596	-0.207437	0.0198498	2.13874	1.97442	0.0120258	-0.00886156
